<svg width="80" height="43" viewBox="0 0 80 43" fill="none" xmlns="http://www.w3.org/2000/svg">
<path d="M12.4022 12.8306H12.3995C10.1372 12.8306 8.30322 14.6177 8.30322 16.8223V16.8249C8.30322 19.0295 10.1372 20.8167 12.3995 20.8167H12.4022C14.6645 20.8167 16.4985 19.0295 16.4985 16.8249V16.8223C16.4985 14.6177 14.6645 12.8306 12.4022 12.8306Z" fill="#AFB1B8"/>
<path d="M42.6368 11.5545C42.6304 8.49242 41.3795 5.55752 39.1579 3.39207C36.9363 1.22661 33.925 0.00695286 30.7828 0V0C27.6397 0.00556265 24.6269 1.22461 22.4041 3.39022C20.1814 5.55582 18.9298 8.49151 18.9233 11.5545V28.4402C18.9233 28.4402 42.6341 25.8667 42.6368 11.5571V11.5545Z" fill="#AFB1B8"/>
<path d="M0 33.9823C0.00569904 36.1129 0.876556 38.1547 2.42228 39.6615C3.96799 41.1683 6.0629 42.0177 8.24923 42.0239C10.4351 42.0177 12.5296 41.1687 14.0752 39.6625C15.6209 38.1562 16.492 36.1151 16.4985 33.9849V22.2356C16.4985 22.2356 0 24.0276 0 33.9823ZM8.24923 36.0874C7.82198 36.0874 7.40433 35.964 7.04909 35.7326C6.69385 35.5013 6.41697 35.1726 6.25347 34.7879C6.08997 34.4032 6.04719 33.98 6.13054 33.5716C6.2139 33.1632 6.41963 32.7881 6.72174 32.4937C7.02385 32.1993 7.40876 31.9988 7.8278 31.9176C8.24683 31.8364 8.68117 31.8781 9.0759 32.0374C9.47062 32.1967 9.808 32.4665 10.0454 32.8127C10.2827 33.1589 10.4094 33.5659 10.4094 33.9823C10.4105 34.2594 10.3554 34.534 10.2473 34.7903C10.1392 35.0466 9.98028 35.2796 9.77958 35.476C9.57889 35.6723 9.34039 35.828 9.07777 35.9343C8.81516 36.0406 8.53359 36.0953 8.24923 36.0953V36.0874Z" fill="#AFB1B8"/>
<path d="M23.4019 32.2588V36.5244H22.5229V32.2588H23.4019ZM25.1011 34.0811V34.7666H23.1616V34.0811H25.1011ZM25.3062 32.2588V32.9473H23.1616V32.2588H25.3062ZM29.3198 34.292V34.4941C29.3198 34.8184 29.2759 35.1094 29.188 35.3672C29.1001 35.625 28.9761 35.8447 28.8159 36.0264C28.6558 36.2061 28.4644 36.3438 28.2417 36.4395C28.021 36.5352 27.7759 36.583 27.5063 36.583C27.2388 36.583 26.9937 36.5352 26.771 36.4395C26.5503 36.3438 26.3589 36.2061 26.1968 36.0264C26.0347 35.8447 25.9087 35.625 25.8188 35.3672C25.731 35.1094 25.687 34.8184 25.687 34.4941V34.292C25.687 33.9658 25.731 33.6748 25.8188 33.4189C25.9067 33.1611 26.0308 32.9414 26.1909 32.7598C26.353 32.5781 26.5444 32.4395 26.7651 32.3438C26.9878 32.248 27.2329 32.2002 27.5005 32.2002C27.77 32.2002 28.0151 32.248 28.2358 32.3438C28.4585 32.4395 28.6499 32.5781 28.8101 32.7598C28.9722 32.9414 29.0972 33.1611 29.1851 33.4189C29.2749 33.6748 29.3198 33.9658 29.3198 34.292ZM28.4321 34.4941V34.2861C28.4321 34.0596 28.4116 33.8604 28.3706 33.6885C28.3296 33.5166 28.269 33.3721 28.189 33.2549C28.1089 33.1377 28.0112 33.0498 27.896 32.9912C27.7808 32.9307 27.6489 32.9004 27.5005 32.9004C27.3521 32.9004 27.2202 32.9307 27.105 32.9912C26.9917 33.0498 26.895 33.1377 26.8149 33.2549C26.7368 33.3721 26.6772 33.5166 26.6362 33.6885C26.5952 33.8604 26.5747 34.0596 26.5747 34.2861V34.4941C26.5747 34.7188 26.5952 34.918 26.6362 35.0918C26.6772 35.2637 26.7378 35.4092 26.8179 35.5283C26.8979 35.6455 26.9956 35.7344 27.1108 35.7949C27.2261 35.8555 27.3579 35.8857 27.5063 35.8857C27.6548 35.8857 27.7866 35.8555 27.9019 35.7949C28.0171 35.7344 28.1138 35.6455 28.1919 35.5283C28.27 35.4092 28.3296 35.2637 28.3706 35.0918C28.4116 34.918 28.4321 34.7188 28.4321 34.4941ZM32.1733 35.4082C32.1733 35.332 32.1616 35.2637 32.1382 35.2031C32.1167 35.1406 32.0757 35.084 32.0151 35.0332C31.9546 34.9805 31.8696 34.9287 31.7603 34.8779C31.6509 34.8271 31.5093 34.7744 31.3354 34.7197C31.1421 34.6572 30.9585 34.5869 30.7847 34.5088C30.6128 34.4307 30.4604 34.3398 30.3276 34.2363C30.1968 34.1309 30.0933 34.0088 30.0171 33.8701C29.9429 33.7314 29.9058 33.5703 29.9058 33.3867C29.9058 33.209 29.9448 33.0479 30.0229 32.9033C30.1011 32.7568 30.2104 32.6318 30.3511 32.5283C30.4917 32.4229 30.6577 32.3418 30.8491 32.2852C31.0425 32.2285 31.2544 32.2002 31.4849 32.2002C31.7993 32.2002 32.0737 32.2568 32.3081 32.3701C32.5425 32.4834 32.7241 32.6387 32.853 32.8359C32.9839 33.0332 33.0493 33.2588 33.0493 33.5127H32.1763C32.1763 33.3877 32.1499 33.2783 32.0972 33.1846C32.0464 33.0889 31.9683 33.0137 31.8628 32.959C31.7593 32.9043 31.6284 32.877 31.4702 32.877C31.3179 32.877 31.1909 32.9004 31.0894 32.9473C30.9878 32.9922 30.9116 33.0537 30.8608 33.1318C30.8101 33.208 30.7847 33.2939 30.7847 33.3896C30.7847 33.4619 30.8022 33.5273 30.8374 33.5859C30.8745 33.6445 30.9292 33.6992 31.0015 33.75C31.0737 33.8008 31.1626 33.8486 31.2681 33.8936C31.3735 33.9385 31.4956 33.9824 31.6343 34.0254C31.8667 34.0957 32.0708 34.1748 32.2466 34.2627C32.4243 34.3506 32.5728 34.4492 32.6919 34.5586C32.811 34.668 32.9009 34.792 32.9614 34.9307C33.022 35.0693 33.0522 35.2266 33.0522 35.4023C33.0522 35.5879 33.0161 35.7539 32.9438 35.9004C32.8716 36.0469 32.7671 36.1709 32.6304 36.2725C32.4937 36.374 32.3306 36.4512 32.1411 36.5039C31.9517 36.5566 31.7397 36.583 31.5054 36.583C31.2944 36.583 31.0864 36.5557 30.8813 36.501C30.6763 36.4443 30.4897 36.3594 30.3218 36.2461C30.1558 36.1328 30.0229 35.9883 29.9233 35.8125C29.8237 35.6367 29.7739 35.4287 29.7739 35.1885H30.6558C30.6558 35.3213 30.6763 35.4336 30.7173 35.5254C30.7583 35.6172 30.8159 35.6914 30.8901 35.748C30.9663 35.8047 31.0562 35.8457 31.1597 35.8711C31.2651 35.8965 31.3804 35.9092 31.5054 35.9092C31.6577 35.9092 31.7827 35.8877 31.8804 35.8447C31.98 35.8018 32.0532 35.7422 32.1001 35.666C32.1489 35.5898 32.1733 35.5039 32.1733 35.4082ZM35.5571 32.2588V36.5244H34.6812V32.2588H35.5571ZM36.8696 32.2588V32.9473H33.3892V32.2588H36.8696ZM40.2329 35.8389V36.5244H37.9624V35.8389H40.2329ZM38.2495 32.2588V36.5244H37.3706V32.2588H38.2495ZM39.937 33.9961V34.6641H37.9624V33.9961H39.937ZM40.23 32.2588V32.9473H37.9624V32.2588H40.23ZM40.7456 32.2588H42.3364C42.6626 32.2588 42.9429 32.3076 43.1772 32.4053C43.4136 32.5029 43.5952 32.6475 43.7222 32.8389C43.8491 33.0303 43.9126 33.2656 43.9126 33.5449C43.9126 33.7734 43.8735 33.9697 43.7954 34.1338C43.7192 34.2959 43.6108 34.4316 43.4702 34.541C43.3315 34.6484 43.1685 34.7344 42.981 34.7988L42.7026 34.9453H41.3198L41.314 34.2598H42.3423C42.4966 34.2598 42.6245 34.2324 42.7261 34.1777C42.8276 34.123 42.9038 34.0469 42.9546 33.9492C43.0073 33.8516 43.0337 33.7383 43.0337 33.6094C43.0337 33.4727 43.0083 33.3545 42.9575 33.2549C42.9067 33.1553 42.8296 33.0791 42.7261 33.0264C42.6226 32.9736 42.4927 32.9473 42.3364 32.9473H41.6245V36.5244H40.7456V32.2588ZM43.1304 36.5244L42.1577 34.623L43.0864 34.6172L44.0708 36.4834V36.5244H43.1304ZM47.7446 35.0039H46.6577V34.3184H47.7446C47.9126 34.3184 48.0493 34.291 48.1548 34.2363C48.2603 34.1797 48.3374 34.1016 48.3862 34.002C48.4351 33.9023 48.4595 33.79 48.4595 33.665C48.4595 33.5381 48.4351 33.4199 48.3862 33.3105C48.3374 33.2012 48.2603 33.1133 48.1548 33.0469C48.0493 32.9805 47.9126 32.9473 47.7446 32.9473H46.9624V36.5244H46.0835V32.2588H47.7446C48.0786 32.2588 48.3647 32.3193 48.603 32.4404C48.8433 32.5596 49.0269 32.7246 49.1538 32.9355C49.2808 33.1465 49.3442 33.3877 49.3442 33.6592C49.3442 33.9346 49.2808 34.1729 49.1538 34.374C49.0269 34.5752 48.8433 34.7305 48.603 34.8398C48.3647 34.9492 48.0786 35.0039 47.7446 35.0039ZM52.813 35.8389V36.5244H50.5425V35.8389H52.813ZM50.8296 32.2588V36.5244H49.9507V32.2588H50.8296ZM52.5171 33.9961V34.6641H50.5425V33.9961H52.5171ZM52.8101 32.2588V32.9473H50.5425V32.2588H52.8101ZM55.2915 32.2588V36.5244H54.4155V32.2588H55.2915ZM56.604 32.2588V32.9473H53.1235V32.2588H56.604ZM59.9673 35.8389V36.5244H57.6968V35.8389H59.9673ZM57.9839 32.2588V36.5244H57.105V32.2588H57.9839ZM59.6714 33.9961V34.6641H57.6968V33.9961H59.6714ZM59.9644 32.2588V32.9473H57.6968V32.2588H59.9644ZM60.48 32.2588H62.0708C62.397 32.2588 62.6772 32.3076 62.9116 32.4053C63.1479 32.5029 63.3296 32.6475 63.4565 32.8389C63.5835 33.0303 63.647 33.2656 63.647 33.5449C63.647 33.7734 63.6079 33.9697 63.5298 34.1338C63.4536 34.2959 63.3452 34.4316 63.2046 34.541C63.0659 34.6484 62.9028 34.7344 62.7153 34.7988L62.437 34.9453H61.0542L61.0483 34.2598H62.0767C62.231 34.2598 62.3589 34.2324 62.4604 34.1777C62.562 34.123 62.6382 34.0469 62.689 33.9492C62.7417 33.8516 62.7681 33.7383 62.7681 33.6094C62.7681 33.4727 62.7427 33.3545 62.6919 33.2549C62.6411 33.1553 62.564 33.0791 62.4604 33.0264C62.3569 32.9736 62.2271 32.9473 62.0708 32.9473H61.3589V36.5244H60.48V32.2588ZM62.8647 36.5244L61.8921 34.623L62.8208 34.6172L63.8052 36.4834V36.5244H62.8647ZM66.5444 35.4082C66.5444 35.332 66.5327 35.2637 66.5093 35.2031C66.4878 35.1406 66.4468 35.084 66.3862 35.0332C66.3257 34.9805 66.2407 34.9287 66.1313 34.8779C66.022 34.8271 65.8804 34.7744 65.7065 34.7197C65.5132 34.6572 65.3296 34.5869 65.1558 34.5088C64.9839 34.4307 64.8315 34.3398 64.6987 34.2363C64.5679 34.1309 64.4644 34.0088 64.3882 33.8701C64.314 33.7314 64.2769 33.5703 64.2769 33.3867C64.2769 33.209 64.3159 33.0479 64.394 32.9033C64.4722 32.7568 64.5815 32.6318 64.7222 32.5283C64.8628 32.4229 65.0288 32.3418 65.2202 32.2852C65.4136 32.2285 65.6255 32.2002 65.856 32.2002C66.1704 32.2002 66.4448 32.2568 66.6792 32.3701C66.9136 32.4834 67.0952 32.6387 67.2241 32.8359C67.355 33.0332 67.4204 33.2588 67.4204 33.5127H66.5474C66.5474 33.3877 66.521 33.2783 66.4683 33.1846C66.4175 33.0889 66.3394 33.0137 66.2339 32.959C66.1304 32.9043 65.9995 32.877 65.8413 32.877C65.689 32.877 65.562 32.9004 65.4604 32.9473C65.3589 32.9922 65.2827 33.0537 65.2319 33.1318C65.1812 33.208 65.1558 33.2939 65.1558 33.3896C65.1558 33.4619 65.1733 33.5273 65.2085 33.5859C65.2456 33.6445 65.3003 33.6992 65.3726 33.75C65.4448 33.8008 65.5337 33.8486 65.6392 33.8936C65.7446 33.9385 65.8667 33.9824 66.0054 34.0254C66.2378 34.0957 66.4419 34.1748 66.6177 34.2627C66.7954 34.3506 66.9438 34.4492 67.063 34.5586C67.1821 34.668 67.272 34.792 67.3325 34.9307C67.3931 35.0693 67.4233 35.2266 67.4233 35.4023C67.4233 35.5879 67.3872 35.7539 67.3149 35.9004C67.2427 36.0469 67.1382 36.1709 67.0015 36.2725C66.8647 36.374 66.7017 36.4512 66.5122 36.5039C66.3228 36.5566 66.1108 36.583 65.8765 36.583C65.6655 36.583 65.4575 36.5557 65.2524 36.501C65.0474 36.4443 64.8608 36.3594 64.6929 36.2461C64.5269 36.1328 64.394 35.9883 64.2944 35.8125C64.1948 35.6367 64.145 35.4287 64.145 35.1885H65.0269C65.0269 35.3213 65.0474 35.4336 65.0884 35.5254C65.1294 35.6172 65.187 35.6914 65.2612 35.748C65.3374 35.8047 65.4272 35.8457 65.5308 35.8711C65.6362 35.8965 65.7515 35.9092 65.8765 35.9092C66.0288 35.9092 66.1538 35.8877 66.2515 35.8447C66.3511 35.8018 66.4243 35.7422 66.4712 35.666C66.52 35.5898 66.5444 35.5039 66.5444 35.4082Z" fill="#AFB1B8"/>
</svg>
